<svg xmlns="http://www.w3.org/2000/svg" xmlns:xlink="http://www.w3.org/1999/xlink" viewBox="0,0,256,256" width="128px" height="128px" fill-rule="nonzero"><g fill="none" fill-rule="nonzero" stroke="#ffdb6e" stroke-width="2" stroke-linecap="round" stroke-linejoin="round" stroke-miterlimit="10" stroke-dasharray="" stroke-dashoffset="0" font-family="none" font-weight="none" font-size="none" text-anchor="none" style="mix-blend-mode: normal"><g transform="scale(4,4)"><path d="M27.99,57h8.532c1.09,0 1.974,-0.884 1.974,-1.974v-0.1c0,-1.09 -0.884,-1.974 -1.974,-1.974h-8.699c-1.087,0 -1.97,-0.879 -1.974,-1.966v0c-0.005,-1.094 0.881,-1.982 1.974,-1.982h4.37h1.524c3.795,0 6.872,-3.077 6.872,-6.872v-2.03c0,-2.038 0.762,-4.038 2.24,-5.441c2.99,-2.839 4.857,-6.847 4.857,-11.295c0,-8.859 -7.388,-15.993 -16.34,-15.576c-7.53,0.351 -14.425,7.201 -14.824,14.728c-0.246,4.642 1.543,8.864 4.552,11.868c1.525,1.522 2.514,3.563 2.522,5.718c0.012,2.806 1.979,4.896 3.999,4.896h4.405c0,0 0,-16 0,-18c0,-4 -5,-4 -5,0c0,6 10,6 10,0"></path></g></g></svg>