<?xml version="1.0" encoding="UTF-8"?>
<!DOCTYPE svg PUBLIC "-//W3C//DTD SVG 1.1//EN" "http://www.w3.org/Graphics/SVG/1.1/DTD/svg11.dtd">
<!-- Creator: CorelDRAW 2021 (64 Bit) -->
<svg xmlns="http://www.w3.org/2000/svg" xml:space="preserve" width="210mm" height="297mm" version="1.1" style="shape-rendering:geometricPrecision; text-rendering:geometricPrecision; image-rendering:optimizeQuality; fill-rule:evenodd; clip-rule:evenodd"
viewBox="0 0 21000 29700"
 xmlns:xlink="http://www.w3.org/1999/xlink"
 xmlns:xodm="http://www.corel.com/coreldraw/odm/2003">
 <defs>
  <style type="text/css">
   <![CDATA[
    .fil1 {fill:#373435}
    .fil0 {fill:url(#id0);fill-rule:nonzero}
   ]]>
  </style>
  <linearGradient id="id0" gradientUnits="userSpaceOnUse" x1="5215.53" y1="14822.02" x2="15770.21" y2="14822.02">
   <stop offset="0" style="stop-opacity:1; stop-color:#FFDB6E"/>
   <stop offset="1" style="stop-opacity:1; stop-color:#FFBC5E"/>
  </linearGradient>
 </defs>
 <g id="Camada_x0020_1">
  <metadata id="CorelCorpID_0Corel-Layer"/>
  <path class="fil0" d="M5215.5 14850.53c0,-2914.6 2362.77,-5277.37 5277.37,-5277.37l2424.73 0c1575.45,0 2852.64,1277.19 2852.64,2852.64l0 2424.73c0,2914.58 -2362.79,5277.37 -5277.37,5277.37l0 0c-2914.6,0 -5277.37,-2362.79 -5277.37,-5277.37l0 0z"/>
  <path class="fil1" d="M9590.72 18677.36c80.27,0 197.88,-147.64 249.42,-211.66 446.54,-521.08 988.44,-1085.66 1397.29,-1616.12 272.71,-353.83 543.37,-483.21 543.37,-1070.37 0,-1057.34 17.57,-2122.91 -0.57,-3178.65 -1.4,-80.9 -17.64,-125.13 36.75,-144.6 155.41,-55.71 1423.16,-19.5 1791.63,-19.5 -7.21,86.53 -72.97,123.37 -117.69,178.72l-544.65 640.95c-50.46,58.03 -73.43,121.22 -162.64,133.86 -157.67,22.35 -374.59,1.54 -574.7,1.54l4.02 653.14 440.59 -10.94c516.17,0 645.42,-216.59 861.11,-472.69 405.97,-482.04 811.09,-965.81 1234.28,-1433.33 122.55,-135.4 172.03,-316.99 -119.39,-316.99l-3112.21 0c-247.41,0 -378.74,161.23 -378.74,411.67 0,524.27 86.03,3440.34 -9.01,3761.88 -156.01,186.68 -900.45,1103.37 -995.46,1128.75 0,-960.56 0,-1921.12 0,-2881.68 0,-334.67 61.38,-734.2 -249.29,-821.05 -139.4,-38.97 -1570.56,-18.76 -1792.58,-18.76 198.36,-238.64 407.8,-490.34 613.11,-720.69 215.16,-241.38 57.97,-232.9 671.35,-234.42l1103.98 -0.5 196.83 0.54 0.97 -494.97c1.11,-69.91 16.29,-130.77 -50.36,-130.77l-1646.68 0c-267.22,0 -484.79,127.78 -629.72,292.41 -491.14,557.94 -971.87,1140.21 -1455.64,1706.43 -55.41,100.12 -39.57,197.73 92.53,208.07 710.65,2.63 1478.4,-28.36 2174.7,0.21 393.24,16.14 328.6,-64.9 328.6,345.23 0,1220.04 7.21,2434.85 0.22,3655.4 -0.73,126.32 0.06,252.65 -0.24,378.97 -0.29,121.57 -21.51,279.92 98.82,279.92z"/>
 </g>
</svg>
